<?xml version="1.0" encoding="UTF-8" standalone="no"?>
<!DOCTYPE svg PUBLIC "-//W3C//DTD SVG 1.1//EN"
 "http://www.w3.org/Graphics/SVG/1.1/DTD/svg11.dtd">
<!-- Generated by graphviz version 2.36.0 (20140111.2315)
 -->
<!-- Title: G Pages: 1 -->
<svg width="1246pt" height="387pt"
 viewBox="0.00 0.00 1246.00 387.00" xmlns="http://www.w3.org/2000/svg" xmlns:xlink="http://www.w3.org/1999/xlink">
<g id="graph0" class="graph" transform="scale(1 1) rotate(0) translate(4 383)">
<title>G</title>
<polygon fill="white" stroke="none" points="-4,4 -4,-383 1242,-383 1242,4 -4,4"/>
<g id="clust1" class="cluster"><title>cluster_0</title>
<polygon fill="none" stroke="black" points="8,-8 8,-371 98,-371 98,-8 8,-8"/>
<text text-anchor="middle" x="53" y="-355.8" font-family="Times,serif" font-size="14.00">Key</text>
</g>
<g id="clust2" class="cluster"><title>cluster_1</title>
<polygon fill="none" stroke="black" points="106,-8 106,-371 1230,-371 1230,-8 106,-8"/>
<text text-anchor="middle" x="668" y="-355.8" font-family="Times,serif" font-size="14.00">Data Identification for Reuse and Citation</text>
</g>
<!-- organisations -->
<g id="node1" class="node"><title>organisations</title>
<polygon fill="#feac93" stroke="#feac93" points="90,-340 16,-340 16,-304 90,-304 90,-340"/>
<text text-anchor="middle" x="53" y="-320.1" font-family="verdana" font-size="8.00" fill="#3d3d3d">organisations</text>
</g>
<!-- groups -->
<g id="node2" class="node"><title>groups</title>
<ellipse fill="#fecb93" stroke="#fecb93" cx="53" cy="-250" rx="27" ry="18"/>
<text text-anchor="middle" x="53" y="-248.1" font-family="verdana" font-size="8.00" fill="#3d3d3d">groups</text>
</g>
<!-- organisations&#45;&gt;groups -->
<g id="edge1" class="edge"><title>organisations&#45;&gt;groups</title>
<path fill="none" stroke="#ffffff" d="M53,-303.697C53,-295.983 53,-286.712 53,-278.112"/>
<polygon fill="#ffffff" stroke="#ffffff" points="56.5001,-278.104 53,-268.104 49.5001,-278.104 56.5001,-278.104"/>
</g>
<!-- people -->
<g id="node3" class="node"><title>people</title>
<ellipse fill="#bffe93" stroke="#bffe93" cx="53" cy="-178" rx="27" ry="18"/>
<text text-anchor="middle" x="53" y="-176.1" font-family="verdana" font-size="8.00" fill="#3d3d3d">people</text>
</g>
<!-- groups&#45;&gt;people -->
<g id="edge2" class="edge"><title>groups&#45;&gt;people</title>
<path fill="none" stroke="#ffffff" d="M53,-231.697C53,-223.983 53,-214.712 53,-206.112"/>
<polygon fill="#ffffff" stroke="#ffffff" points="56.5001,-206.104 53,-196.104 49.5001,-206.104 56.5001,-206.104"/>
</g>
<!-- publications -->
<g id="node4" class="node"><title>publications</title>
<polygon fill="#b993fe" stroke="#b993fe" points="86.25,-124 19.75,-124 19.75,-88 86.25,-88 86.25,-124"/>
<text text-anchor="middle" x="53" y="-104.1" font-family="verdana" font-size="8.00" fill="#3d3d3d">publications</text>
</g>
<!-- people&#45;&gt;publications -->
<g id="edge3" class="edge"><title>people&#45;&gt;publications</title>
<path fill="none" stroke="#ffffff" d="M53,-159.697C53,-151.983 53,-142.712 53,-134.112"/>
<polygon fill="#ffffff" stroke="#ffffff" points="56.5001,-134.104 53,-124.104 49.5001,-134.104 56.5001,-134.104"/>
</g>
<!-- events -->
<g id="node5" class="node"><title>events</title>
<polygon fill="#93a7fe" stroke="#93a7fe" points="80,-52 26,-52 26,-16 80,-16 80,-52"/>
<text text-anchor="middle" x="53" y="-32.1" font-family="verdana" font-size="8.00" fill="#3d3d3d">events</text>
</g>
<!-- publications&#45;&gt;events -->
<g id="edge4" class="edge"><title>publications&#45;&gt;events</title>
<path fill="none" stroke="#ffffff" d="M53,-87.6966C53,-79.9827 53,-70.7125 53,-62.1124"/>
<polygon fill="#ffffff" stroke="#ffffff" points="56.5001,-62.1043 53,-52.1043 49.5001,-62.1044 56.5001,-62.1043"/>
</g>
<!-- Andreas Rauber -->
<g id="node6" class="node"><title>Andreas Rauber</title>
<g id="a_node6"><a xlink:href="https://www.sba-research.org/team/key-researchers/andreas-rauber" xlink:title="Andreas Rauber">
<ellipse fill="#bffe93" stroke="#bffe93" cx="483" cy="-178" rx="48.1751" ry="18"/>
<text text-anchor="middle" x="483" y="-176.1" font-family="verdana" font-size="8.00" fill="#3d3d3d">Andreas Rauber</text>
</a>
</g>
</g>
<!-- A Scalable Framework...(2014) -->
<g id="node22" class="node"><title>A Scalable Framework...(2014)</title>
<g id="a_node22"><a xlink:href="https://www.sba-research.org/wp-content/uploads/publications/Scalable%20Framework_paper.pdf" xlink:title="A Scalable Framework for Dynamic Data Citation of Arbitrary Structured Data (2014)">
<polygon fill="#b993fe" stroke="#b993fe" points="720.5,-124 571.5,-124 571.5,-88 720.5,-88 720.5,-124"/>
<text text-anchor="middle" x="646" y="-104.1" font-family="verdana" font-size="8.00" fill="#3d3d3d">A Scalable Framework...(2014)</text>
</a>
</g>
</g>
<!-- Andreas Rauber&#45;&gt;A Scalable Framework...(2014) -->
<g id="edge15" class="edge"><title>Andreas Rauber&#45;&gt;A Scalable Framework...(2014)</title>
<path fill="none" stroke="#3d3d3d" d="M513.659,-163.834C539.85,-152.586 577.704,-136.33 606.223,-124.082"/>
</g>
<!-- Scalable Data Citation...(2013) -->
<g id="node23" class="node"><title>Scalable Data Citation...(2013)</title>
<g id="a_node23"><a xlink:href="http://dx.doi.org/10.1109/BigData.2013.6691588" xlink:title="Scalable Data Citation in Dynamic Large Databases: Model and Reference Implementation (2013)">
<polygon fill="#b993fe" stroke="#b993fe" points="404.25,-124 255.75,-124 255.75,-88 404.25,-88 404.25,-124"/>
<text text-anchor="middle" x="330" y="-104.1" font-family="verdana" font-size="8.00" fill="#3d3d3d">Scalable Data Citation...(2013)</text>
</a>
</g>
</g>
<!-- Andreas Rauber&#45;&gt;Scalable Data Citation...(2013) -->
<g id="edge28" class="edge"><title>Andreas Rauber&#45;&gt;Scalable Data Citation...(2013)</title>
<path fill="none" stroke="#3d3d3d" d="M453.5,-163.503C428.925,-152.26 393.786,-136.183 367.269,-124.051"/>
</g>
<!-- Citable by Design...(2013) -->
<g id="node24" class="node"><title>Citable by Design...(2013)</title>
<g id="a_node24"><a xlink:href="http://blog.stefanproell.at/wp-content/uploads/2013/09/PositionPaperDataCitation.pdf" xlink:title="Citable by Design A Model for Making Data in Dynamic Environments Citable (2013)">
<polygon fill="#b993fe" stroke="#b993fe" points="553,-124 423,-124 423,-88 553,-88 553,-124"/>
<text text-anchor="middle" x="488" y="-104.1" font-family="verdana" font-size="8.00" fill="#3d3d3d">Citable by Design...(2013)</text>
</a>
</g>
</g>
<!-- Andreas Rauber&#45;&gt;Citable by Design...(2013) -->
<g id="edge31" class="edge"><title>Andreas Rauber&#45;&gt;Citable by Design...(2013)</title>
<path fill="none" stroke="#3d3d3d" d="M484.236,-159.697C485.011,-148.846 486.006,-134.917 486.778,-124.104"/>
</g>
<!-- Asking the Right...(2015) -->
<g id="node25" class="node"><title>Asking the Right...(2015)</title>
<g id="a_node25"><a xlink:href="http://ercim-news.ercim.eu/en100/special/asking-the-right-questions-query-based-data-citation-to-precisely-identify-subsets-of-data" xlink:title="Asking the Right Questions – Query&#45;Based Data Citation to Precisely Identify Subsets of Data (2015)">
<polygon fill="#b993fe" stroke="#b993fe" points="237.5,-124 114.5,-124 114.5,-88 237.5,-88 237.5,-124"/>
<text text-anchor="middle" x="176" y="-104.1" font-family="verdana" font-size="8.00" fill="#3d3d3d">Asking the Right...(2015)</text>
</a>
</g>
</g>
<!-- Andreas Rauber&#45;&gt;Asking the Right...(2015) -->
<g id="edge34" class="edge"><title>Andreas Rauber&#45;&gt;Asking the Right...(2015)</title>
<path fill="none" stroke="#3d3d3d" d="M443.798,-167.29C433.77,-164.858 422.996,-162.291 413,-160 338.991,-143.039 320.009,-140.961 246,-124 243.318,-123.385 240.58,-122.751 237.816,-122.104"/>
</g>
<!-- Ident. of Reproducible...(draft) -->
<g id="node27" class="node"><title>Ident. of Reproducible...(draft)</title>
<g id="a_node27"><a xlink:href="https://rd-alliance.org/system/files/documents/RDA-Guidelines_TCDL_draft.pdf" xlink:title="Identification of Reproducible Subsets for Data Citation, Sharing and Re&#45;Use">
<polygon fill="#b993fe" stroke="#b993fe" points="887.25,-124 738.75,-124 738.75,-88 887.25,-88 887.25,-124"/>
<text text-anchor="middle" x="813" y="-104.1" font-family="verdana" font-size="8.00" fill="#3d3d3d">Ident. of Reproducible...(draft)</text>
</a>
</g>
</g>
<!-- Andreas Rauber&#45;&gt;Ident. of Reproducible...(draft) -->
<g id="edge24" class="edge"><title>Andreas Rauber&#45;&gt;Ident. of Reproducible...(draft)</title>
<path fill="none" stroke="#3d3d3d" d="M524.127,-168.276C577.689,-156.915 672.289,-136.848 738.598,-122.782"/>
</g>
<!-- Stefan Pröll -->
<g id="node7" class="node"><title>Stefan Pröll</title>
<g id="a_node7"><a xlink:href="https://www.sba-research.org/team/researchers/stefan-proell" xlink:title="Stefan Pröll">
<ellipse fill="#bffe93" stroke="#bffe93" cx="367" cy="-178" rx="37.1561" ry="18"/>
<text text-anchor="middle" x="367" y="-176.1" font-family="verdana" font-size="8.00" fill="#3d3d3d">Stefan Pröll</text>
</a>
</g>
</g>
<!-- Stefan Pröll&#45;&gt;A Scalable Framework...(2014) -->
<g id="edge14" class="edge"><title>Stefan Pröll&#45;&gt;A Scalable Framework...(2014)</title>
<path fill="none" stroke="#3d3d3d" d="M397.623,-167.715C406.435,-165.127 416.077,-162.376 425,-160 473.517,-147.081 528.406,-133.91 571.344,-123.93"/>
</g>
<!-- Stefan Pröll&#45;&gt;Scalable Data Citation...(2013) -->
<g id="edge27" class="edge"><title>Stefan Pröll&#45;&gt;Scalable Data Citation...(2013)</title>
<path fill="none" stroke="#3d3d3d" d="M358.232,-160.411C352.504,-149.576 345.038,-135.45 339.222,-124.447"/>
</g>
<!-- Stefan Pröll&#45;&gt;Citable by Design...(2013) -->
<g id="edge30" class="edge"><title>Stefan Pröll&#45;&gt;Citable by Design...(2013)</title>
<path fill="none" stroke="#3d3d3d" d="M390.044,-163.669C409.517,-152.403 437.526,-136.2 458.61,-124.002"/>
</g>
<!-- Stefan Pröll&#45;&gt;Asking the Right...(2015) -->
<g id="edge33" class="edge"><title>Stefan Pröll&#45;&gt;Asking the Right...(2015)</title>
<path fill="none" stroke="#3d3d3d" d="M337.991,-166.369C307.31,-155.124 258.451,-137.218 222.407,-124.008"/>
</g>
<!-- Stefan Pröll&#45;&gt;Ident. of Reproducible...(draft) -->
<g id="edge23" class="edge"><title>Stefan Pröll&#45;&gt;Ident. of Reproducible...(draft)</title>
<path fill="none" stroke="#3d3d3d" d="M396.863,-167.21C405.832,-164.552 415.747,-161.89 425,-160 558.303,-132.771 594.656,-145.512 729,-124 732.085,-123.506 735.23,-122.979 738.403,-122.427"/>
</g>
<!-- Maryann Martone -->
<g id="node8" class="node"><title>Maryann Martone</title>
<g id="a_node8"><a xlink:href="https://www.force11.org/node/4896" xlink:title="Maryann Martone">
<ellipse fill="#bffe93" stroke="#bffe93" cx="873" cy="-178" rx="51.4262" ry="18"/>
<text text-anchor="middle" x="873" y="-176.1" font-family="verdana" font-size="8.00" fill="#3d3d3d">Maryann Martone</text>
</a>
</g>
</g>
<!-- Data Citation Principles...(2014) -->
<g id="node26" class="node"><title>Data Citation Principles...(2014)</title>
<g id="a_node26"><a xlink:href="https://www.force11.org/group/joint-declaration-data-citation-principles-final" xlink:title="Joint Declaration of Data Citation Principles (2014)">
<polygon fill="#b993fe" stroke="#b993fe" points="1060,-124 906,-124 906,-88 1060,-88 1060,-124"/>
<text text-anchor="middle" x="983" y="-104.1" font-family="verdana" font-size="8.00" fill="#3d3d3d">Data Citation Principles...(2014)</text>
</a>
</g>
</g>
<!-- Maryann Martone&#45;&gt;Data Citation Principles...(2014) -->
<g id="edge6" class="edge"><title>Maryann Martone&#45;&gt;Data Citation Principles...(2014)</title>
<path fill="none" stroke="#3d3d3d" d="M896.598,-161.983C914.021,-150.896 937.767,-135.784 955.957,-124.209"/>
</g>
<!-- Dieter van Uytvanck -->
<g id="node9" class="node"><title>Dieter van Uytvanck</title>
<g id="a_node9"><a xlink:href="http://www.clarin.eu/person/dieter-van-uytvanck" xlink:title="Dieter van Uytvanck">
<ellipse fill="#bffe93" stroke="#bffe93" cx="744" cy="-178" rx="58.4877" ry="18"/>
<text text-anchor="middle" x="744" y="-176.1" font-family="verdana" font-size="8.00" fill="#3d3d3d">Dieter van Uytvanck</text>
</a>
</g>
</g>
<!-- Dieter van Uytvanck&#45;&gt;Ident. of Reproducible...(draft) -->
<g id="edge25" class="edge"><title>Dieter van Uytvanck&#45;&gt;Ident. of Reproducible...(draft)</title>
<path fill="none" stroke="#3d3d3d" d="M760.352,-160.411C771.032,-149.576 784.957,-135.45 795.802,-124.447"/>
</g>
<!-- Ari Asmi -->
<g id="node10" class="node"><title>Ari Asmi</title>
<g id="a_node10"><a xlink:href="https://tuhat.halvi.helsinki.fi/portal/en/organisations-researchgroups/ari-asmi--principal(12f666cb-57cb-4013-9fb5-e713312ec272).html" xlink:title="Ari Asmi">
<ellipse fill="#bffe93" stroke="#bffe93" cx="637" cy="-178" rx="30.0947" ry="18"/>
<text text-anchor="middle" x="637" y="-176.1" font-family="verdana" font-size="8.00" fill="#3d3d3d">Ari Asmi</text>
</a>
</g>
</g>
<!-- Ari Asmi&#45;&gt;Ident. of Reproducible...(draft) -->
<g id="edge26" class="edge"><title>Ari Asmi&#45;&gt;Ident. of Reproducible...(draft)</title>
<path fill="none" stroke="#3d3d3d" d="M660.443,-166.592C665.554,-164.376 670.945,-162.078 676,-160 706.309,-147.538 740.708,-134.233 767.456,-124.071"/>
</g>
<!-- Jens Klump -->
<g id="node11" class="node"><title>Jens Klump</title>
<g id="a_node11"><a xlink:href="https://www.researchgate.net/profile/Jens_Klump" xlink:title="Jens Klump">
<ellipse fill="#bffe93" stroke="#bffe93" cx="979" cy="-178" rx="36.3067" ry="18"/>
<text text-anchor="middle" x="979" y="-176.1" font-family="verdana" font-size="8.00" fill="#3d3d3d">Jens Klump</text>
</a>
</g>
</g>
<!-- Scalable Approaches...(2015) -->
<g id="node28" class="node"><title>Scalable Approaches...(2015)</title>
<g id="a_node28"><a xlink:href="https://www.researchgate.net/publication/283724056_Scalable_Approaches_for_Identifiers_of_Dynamic_Data_and_Linked_Data_in_an_Evolving_World" xlink:title="Scalable Approaches for Identifiers of Dynamic Data and Linked Data in an Evolving World">
<polygon fill="#b993fe" stroke="#b993fe" points="1221.25,-124 1078.75,-124 1078.75,-88 1221.25,-88 1221.25,-124"/>
<text text-anchor="middle" x="1150" y="-104.1" font-family="verdana" font-size="8.00" fill="#3d3d3d">Scalable Approaches...(2015)</text>
</a>
</g>
</g>
<!-- Jens Klump&#45;&gt;Scalable Approaches...(2015) -->
<g id="edge17" class="edge"><title>Jens Klump&#45;&gt;Scalable Approaches...(2015)</title>
<path fill="none" stroke="#3d3d3d" d="M1006.1,-165.908C1033.59,-154.651 1076.53,-137.074 1108.36,-124.047"/>
</g>
<!-- Robert Huber -->
<g id="node12" class="node"><title>Robert Huber</title>
<g id="a_node12"><a xlink:href="https://www.researchgate.net/profile/Robert_Huber2" xlink:title="Robert Huber">
<ellipse fill="#bffe93" stroke="#bffe93" cx="1180" cy="-178" rx="41.4626" ry="18"/>
<text text-anchor="middle" x="1180" y="-176.1" font-family="verdana" font-size="8.00" fill="#3d3d3d">Robert Huber</text>
</a>
</g>
</g>
<!-- Robert Huber&#45;&gt;Scalable Approaches...(2015) -->
<g id="edge18" class="edge"><title>Robert Huber&#45;&gt;Scalable Approaches...(2015)</title>
<path fill="none" stroke="#3d3d3d" d="M1172.74,-160.055C1168.09,-149.211 1162.08,-135.183 1157.4,-124.275"/>
</g>
<!-- L.A.I. Wyborn -->
<g id="node13" class="node"><title>L.A.I. Wyborn</title>
<g id="a_node13"><a xlink:href="https://www.researchgate.net/profile/Lai_Wyborn" xlink:title="L.A.I. Wyborn">
<ellipse fill="#bffe93" stroke="#bffe93" cx="1077" cy="-178" rx="43.1641" ry="18"/>
<text text-anchor="middle" x="1077" y="-176.1" font-family="verdana" font-size="8.00" fill="#3d3d3d">L.A.I. Wyborn</text>
</a>
</g>
</g>
<!-- L.A.I. Wyborn&#45;&gt;Scalable Approaches...(2015) -->
<g id="edge19" class="edge"><title>L.A.I. Wyborn&#45;&gt;Scalable Approaches...(2015)</title>
<path fill="none" stroke="#3d3d3d" d="M1093.56,-161.116C1105.09,-150.063 1120.44,-135.342 1132.23,-124.044"/>
</g>
<!-- FORCE11 -->
<g id="node14" class="node"><title>FORCE11</title>
<g id="a_node14"><a xlink:href="https://www.force11.org" xlink:title="The Future of Research Communications and e&#45;Scholarship">
<ellipse fill="#fecb93" stroke="#fecb93" cx="873" cy="-250" rx="31.1517" ry="18"/>
<text text-anchor="middle" x="873" y="-248.1" font-family="verdana" font-size="8.00" fill="#3d3d3d">FORCE11</text>
</a>
</g>
</g>
<!-- FORCE11&#45;&gt;Maryann Martone -->
<g id="edge5" class="edge"><title>FORCE11&#45;&gt;Maryann Martone</title>
<path fill="none" stroke="#3d3d3d" d="M873,-231.697C873,-220.846 873,-206.917 873,-196.104"/>
</g>
<!-- RDA Data Citation Working Group -->
<g id="node15" class="node"><title>RDA Data Citation Working Group</title>
<g id="a_node15"><a xlink:href="https://rd-alliance.org/groups/data-citation-wg.html" xlink:title="RDA Data Citation Working Group">
<ellipse fill="#fecb93" stroke="#fecb93" cx="588" cy="-250" rx="91.3371" ry="18"/>
<text text-anchor="middle" x="588" y="-248.1" font-family="verdana" font-size="8.00" fill="#3d3d3d">RDA Data Citation Working Group</text>
</a>
</g>
</g>
<!-- RDA Data Citation Working Group&#45;&gt;Andreas Rauber -->
<g id="edge11" class="edge"><title>RDA Data Citation Working Group&#45;&gt;Andreas Rauber</title>
<path fill="none" stroke="#3d3d3d" d="M563.382,-232.588C545.925,-220.95 522.674,-205.449 505.67,-194.114"/>
</g>
<!-- RDA Data Citation Working Group&#45;&gt;Ident. of Reproducible...(draft) -->
<g id="edge12" class="edge"><title>RDA Data Citation Working Group&#45;&gt;Ident. of Reproducible...(draft)</title>
<path fill="none" stroke="#3d3d3d" d="M584.673,-231.991C581.858,-212.208 580.663,-179.747 598,-160 602.843,-154.484 678.452,-136.681 738.654,-123.218"/>
</g>
<!-- Digital preservation research projects -->
<g id="node16" class="node"><title>Digital preservation research projects</title>
<g id="a_node16"><a xlink:href="https://www.sba-research.org/digital-preservation" xlink:title="Digital preservation research projects">
<ellipse fill="#fecb93" stroke="#fecb93" cx="356" cy="-250" rx="101.301" ry="18"/>
<text text-anchor="middle" x="356" y="-248.1" font-family="verdana" font-size="8.00" fill="#3d3d3d">Digital preservation research projects</text>
</a>
</g>
</g>
<!-- Digital preservation research projects&#45;&gt;Andreas Rauber -->
<g id="edge9" class="edge"><title>Digital preservation research projects&#45;&gt;Andreas Rauber</title>
<path fill="none" stroke="#3d3d3d" d="M385.456,-232.765C407.145,-220.81 436.358,-204.708 457.147,-193.25"/>
</g>
<!-- Digital preservation research projects&#45;&gt;Stefan Pröll -->
<g id="edge8" class="edge"><title>Digital preservation research projects&#45;&gt;Stefan Pröll</title>
<path fill="none" stroke="#3d3d3d" d="M358.719,-231.697C360.424,-220.846 362.613,-206.917 364.312,-196.104"/>
</g>
<!-- Technische Universität Wien -->
<g id="node17" class="node"><title>Technische Universität Wien</title>
<g id="a_node17"><a xlink:href="https://www.tuwien.ac.at" xlink:title="Technische Universität Wien">
<polygon fill="#feac93" stroke="#feac93" points="511.25,-340 374.75,-340 374.75,-304 511.25,-304 511.25,-340"/>
<text text-anchor="middle" x="443" y="-320.1" font-family="verdana" font-size="8.00" fill="#3d3d3d">Technische Universität Wien</text>
</a>
</g>
</g>
<!-- Technische Universität Wien&#45;&gt;Andreas Rauber -->
<g id="edge7" class="edge"><title>Technische Universität Wien&#45;&gt;Andreas Rauber</title>
<g id="a_edge7"><a xlink:title="member">
<path fill="none" stroke="#3d3d3d" d="M451.663,-303.702C456.467,-293.519 462.217,-280.269 466,-268 473.555,-243.497 478.381,-214.116 480.891,-196.002"/>
</a>
</g>
</g>
<!-- University of Helsinki -->
<g id="node18" class="node"><title>University of Helsinki</title>
<g id="a_node18"><a xlink:href="https://tuhat.halvi.helsinki.fi/portal/en/" xlink:title="University of Helsinki">
<polygon fill="#feac93" stroke="#feac93" points="771.25,-340 664.75,-340 664.75,-304 771.25,-304 771.25,-340"/>
<text text-anchor="middle" x="718" y="-320.1" font-family="verdana" font-size="8.00" fill="#3d3d3d">University of Helsinki</text>
</a>
</g>
</g>
<!-- University of Helsinki&#45;&gt;Ari Asmi -->
<g id="edge22" class="edge"><title>University of Helsinki&#45;&gt;Ari Asmi</title>
<path fill="none" stroke="#3d3d3d" d="M714.616,-303.975C710.389,-285.322 701.962,-254.998 688,-232 678.987,-217.155 665.157,-203.125 654.171,-193.233"/>
</g>
<!-- CLARIN -->
<g id="node19" class="node"><title>CLARIN</title>
<g id="a_node19"><a xlink:href="http://www.clarin.eu" xlink:title="CLARIN">
<polygon fill="#feac93" stroke="#feac93" points="844,-340 790,-340 790,-304 844,-304 844,-340"/>
<text text-anchor="middle" x="817" y="-320.1" font-family="verdana" font-size="8.00" fill="#3d3d3d">CLARIN</text>
</a>
</g>
</g>
<!-- CLARIN&#45;&gt;Dieter van Uytvanck -->
<g id="edge21" class="edge"><title>CLARIN&#45;&gt;Dieter van Uytvanck</title>
<path fill="none" stroke="#3d3d3d" d="M808.194,-303.871C794.164,-276.578 766.887,-223.52 752.837,-196.189"/>
</g>
<!-- Research Data Alliance -->
<g id="node20" class="node"><title>Research Data Alliance</title>
<g id="a_node20"><a xlink:href="https://rd-alliance.org" xlink:title="Research Data Alliance">
<polygon fill="#feac93" stroke="#feac93" points="645.5,-340 530.5,-340 530.5,-304 645.5,-304 645.5,-340"/>
<text text-anchor="middle" x="588" y="-320.1" font-family="verdana" font-size="8.00" fill="#3d3d3d">Research Data Alliance</text>
</a>
</g>
</g>
<!-- Research Data Alliance&#45;&gt;RDA Data Citation Working Group -->
<g id="edge10" class="edge"><title>Research Data Alliance&#45;&gt;RDA Data Citation Working Group</title>
<path fill="none" stroke="#3d3d3d" d="M588,-303.697C588,-292.846 588,-278.917 588,-268.104"/>
</g>
<!-- SBA Research -->
<g id="node21" class="node"><title>SBA Research</title>
<g id="a_node21"><a xlink:href="https://www.sba-research.org/" xlink:title="SBA Research">
<polygon fill="#feac93" stroke="#feac93" points="356.25,-340 279.75,-340 279.75,-304 356.25,-304 356.25,-340"/>
<text text-anchor="middle" x="318" y="-320.1" font-family="verdana" font-size="8.00" fill="#3d3d3d">SBA Research</text>
</a>
</g>
</g>
<!-- SBA Research&#45;&gt;Digital preservation research projects -->
<g id="edge13" class="edge"><title>SBA Research&#45;&gt;Digital preservation research projects</title>
<path fill="none" stroke="#3d3d3d" d="M327.393,-303.697C333.283,-292.846 340.845,-278.917 346.715,-268.104"/>
</g>
<!-- 3rd Int Conf...(DATA2014) -->
<g id="node31" class="node"><title>3rd Int Conf...(DATA2014)</title>
<g id="a_node31"><a xlink:href="http://www.dataconference.org/?y=2014" xlink:title="3rd International Conference on Data Management Technologies and Applications (DATA2014)">
<polygon fill="#93a7fe" stroke="#93a7fe" points="711.25,-52 580.75,-52 580.75,-16 711.25,-16 711.25,-52"/>
<text text-anchor="middle" x="646" y="-32.1" font-family="verdana" font-size="8.00" fill="#3d3d3d">3rd Int Conf...(DATA2014)</text>
</a>
</g>
</g>
<!-- A Scalable Framework...(2014)&#45;&gt;3rd Int Conf...(DATA2014) -->
<g id="edge16" class="edge"><title>A Scalable Framework...(2014)&#45;&gt;3rd Int Conf...(DATA2014)</title>
<path fill="none" stroke="#3d3d3d" d="M646,-87.6966C646,-76.8463 646,-62.9167 646,-52.1043"/>
</g>
<!-- IEEE Int Conf...(BigData 2013) -->
<g id="node29" class="node"><title>IEEE Int Conf...(BigData 2013)</title>
<g id="a_node29"><a xlink:href="http://cci.drexel.edu/bigdata/bigdata2013" xlink:title="IEEE International Conference on Big Data 2013 (IEEE BigData 2013), 2013">
<polygon fill="#93a7fe" stroke="#93a7fe" points="403.25,-52 254.75,-52 254.75,-16 403.25,-16 403.25,-52"/>
<text text-anchor="middle" x="329" y="-32.1" font-family="verdana" font-size="8.00" fill="#3d3d3d">IEEE Int Conf...(BigData 2013)</text>
</a>
</g>
</g>
<!-- Scalable Data Citation...(2013)&#45;&gt;IEEE Int Conf...(BigData 2013) -->
<g id="edge29" class="edge"><title>Scalable Data Citation...(2013)&#45;&gt;IEEE Int Conf...(BigData 2013)</title>
<path fill="none" stroke="#3d3d3d" d="M329.753,-87.6966C329.598,-76.8463 329.399,-62.9167 329.244,-52.1043"/>
</g>
<!-- 2nd Int Conf...(DATA2013) -->
<g id="node30" class="node"><title>2nd Int Conf...(DATA2013)</title>
<g id="a_node30"><a xlink:href="http://www.dataconference.org/?y=2013" xlink:title="2nd International Conference on Data Management Technologies and Applications (DATA2013)">
<polygon fill="#93a7fe" stroke="#93a7fe" points="554,-52 422,-52 422,-16 554,-16 554,-52"/>
<text text-anchor="middle" x="488" y="-32.1" font-family="verdana" font-size="8.00" fill="#3d3d3d">2nd Int Conf...(DATA2013)</text>
</a>
</g>
</g>
<!-- Citable by Design...(2013)&#45;&gt;2nd Int Conf...(DATA2013) -->
<g id="edge32" class="edge"><title>Citable by Design...(2013)&#45;&gt;2nd Int Conf...(DATA2013)</title>
<path fill="none" stroke="#3d3d3d" d="M488,-87.6966C488,-76.8463 488,-62.9167 488,-52.1043"/>
</g>
<!-- eResearch Australasia 2015 -->
<g id="node32" class="node"><title>eResearch Australasia 2015</title>
<g id="a_node32"><a xlink:href="http://www.dataconference.org/?y=2014" xlink:title="3eResearch Australasia 2015, Brisbane, QLD, Australia">
<polygon fill="#93a7fe" stroke="#93a7fe" points="1218,-52 1082,-52 1082,-16 1218,-16 1218,-52"/>
<text text-anchor="middle" x="1150" y="-32.1" font-family="verdana" font-size="8.00" fill="#3d3d3d">eResearch Australasia 2015</text>
</a>
</g>
</g>
<!-- Scalable Approaches...(2015)&#45;&gt;eResearch Australasia 2015 -->
<g id="edge20" class="edge"><title>Scalable Approaches...(2015)&#45;&gt;eResearch Australasia 2015</title>
<path fill="none" stroke="#3d3d3d" d="M1150,-87.6966C1150,-76.8463 1150,-62.9167 1150,-52.1043"/>
</g>
</g>
</svg>
